<?xml version="1.0" encoding="UTF-8"?>
<svg id="Layer_1" data-name="Layer 1" xmlns="http://www.w3.org/2000/svg" viewBox="0 0 258.03 404.78">
  <defs>
    <style>
      .cls-1 {
        fill: #939393;
        stroke: #fff;
        stroke-miterlimit: 10;
        stroke-width: 2px;
      }
    </style>
  </defs>
  <rect class="cls-1" x="116.52" y=".54" width="25" height="400" rx="10.22" ry="10.22" transform="translate(149.47 -37.04) rotate(37.68)"/>
  <rect class="cls-1" x="77.16" y="1" width="25" height="400" rx="10.22" ry="10.22"/>
  <g>
    <rect class="cls-1" x="181.41" y="60.71" width="6.87" height="315.22" transform="translate(-27.55 26.7) rotate(-7.69)"/>
    <rect class="cls-1" x="192.98" y="374.75" width="25.95" height="5.26" transform="translate(-48.65 30.95) rotate(-7.69)"/>
    <rect class="cls-1" x="153.78" y="82.66" width="25.95" height="8.73" transform="translate(-10.15 23.1) rotate(-7.69)"/>
    <polygon class="cls-1" points="209.65 398.53 203.12 380.58 210.85 379.54 209.65 398.53"/>
  </g>
  <g>
    <rect class="cls-1" x="186.96" y="61.54" width="6.87" height="315.22" transform="translate(26.14 -20.22) rotate(6.53)"/>
    <rect class="cls-1" x="158.83" y="375.88" width="25.95" height="5.26" transform="translate(44.14 -17.07) rotate(6.53)"/>
    <rect class="cls-1" x="192.13" y="83.06" width="25.95" height="8.73" transform="translate(11.27 -22.75) rotate(6.53)"/>
    <polygon class="cls-1" points="170.19 399.92 168.26 380.92 176.02 381.81 170.19 399.92"/>
  </g>
</svg>